<?xml version="1.0" encoding="UTF-8" standalone="no"?><!DOCTYPE svg PUBLIC "-//W3C//DTD SVG 1.1//EN" "http://www.w3.org/Graphics/SVG/1.1/DTD/svg11.dtd"><svg width="100%" height="100%" viewBox="0 0 67 18" version="1.1" xmlns="http://www.w3.org/2000/svg" xmlns:xlink="http://www.w3.org/1999/xlink" xml:space="preserve" xmlns:serif="http://www.serif.com/" style="fill-rule:evenodd;clip-rule:evenodd;stroke-linejoin:round;stroke-miterlimit:2;"><g id="Facebook"><path d="M66.832,1.892c0,-1.044 -0.847,-1.892 -1.891,-1.892l-63.049,-0c-1.044,-0 -1.892,0.848 -1.892,1.892l-0,14.124c-0,1.044 0.848,1.892 1.892,1.892l63.049,-0c1.044,-0 1.891,-0.848 1.891,-1.892l0,-14.124Z" style="fill:#1877f2;"/><path d="M15.091,8.989c-0,-3.231 -2.621,-5.852 -5.853,-5.852c-3.231,0 -5.852,2.621 -5.852,5.852c0,2.922 2.14,5.343 4.938,5.781l0,-4.089l-1.486,0l0,-1.692l1.486,-0l0,-1.288c0,-1.467 0.874,-2.277 2.211,-2.277c0.64,-0 1.31,0.114 1.31,0.114l-0,1.44l-0.739,0c-0.727,0 -0.954,0.451 -0.954,0.914l0,1.097l1.623,0l-0.259,1.693l-1.364,-0l0,4.089c2.799,-0.439 4.939,-2.861 4.939,-5.782Z" style="fill:#fff;fill-rule:nonzero;"/><text x="18.368px" y="12.214px" style="font-family:'ProductSans-Bold', 'Product Sans', sans-serif;font-weight:700;font-size:9.314px;fill:#fff;">F<tspan x="23.286px " y="12.214px ">o</tspan>llo<tspan x="38.355px " y="12.214px ">w</tspan> Me</text></g></svg>