<?xml version="1.0" encoding="UTF-8" standalone="no"?><!DOCTYPE svg PUBLIC "-//W3C//DTD SVG 1.1//EN" "http://www.w3.org/Graphics/SVG/1.1/DTD/svg11.dtd"><svg width="100%" height="100%" viewBox="0 0 67 18" version="1.1" xmlns="http://www.w3.org/2000/svg" xmlns:xlink="http://www.w3.org/1999/xlink" xml:space="preserve" xmlns:serif="http://www.serif.com/" style="fill-rule:evenodd;clip-rule:evenodd;stroke-linejoin:round;stroke-miterlimit:2;"><g id="GitHub"><path d="M66.832,1.892c0,-1.044 -0.847,-1.892 -1.891,-1.892l-63.049,-0c-1.044,-0 -1.892,0.848 -1.892,1.892l-0,14.124c-0,1.044 0.848,1.892 1.892,1.892l63.049,-0c1.044,-0 1.891,-0.848 1.891,-1.892l0,-14.124Z" style="fill:#181717;"/><text x="18.368px" y="12.214px" style="font-family:'ProductSans-Bold', 'Product Sans', sans-serif;font-weight:700;font-size:9.314px;fill:#fff;">F<tspan x="23.286px " y="12.214px ">o</tspan>llo<tspan x="38.355px " y="12.214px ">w</tspan> Me</text><path d="M9.238,3.247c-3.233,-0 -5.852,2.62 -5.852,5.852c0,2.586 1.677,4.779 4.002,5.552c0.292,0.055 0.4,-0.126 0.4,-0.281c-0,-0.139 -0.005,-0.508 -0.008,-0.995c-1.628,0.353 -1.971,-0.785 -1.971,-0.785c-0.266,-0.676 -0.651,-0.856 -0.651,-0.856c-0.53,-0.363 0.041,-0.356 0.041,-0.356c0.588,0.041 0.896,0.603 0.896,0.603c0.522,0.895 1.37,0.636 1.705,0.487c0.052,-0.379 0.203,-0.637 0.37,-0.783c-1.299,-0.146 -2.665,-0.65 -2.665,-2.892c-0,-0.639 0.226,-1.161 0.602,-1.57c-0.066,-0.148 -0.263,-0.743 0.051,-1.549c0,-0 0.49,-0.157 1.61,0.6c0.468,-0.131 0.965,-0.195 1.463,-0.198c0.497,0.003 0.995,0.067 1.463,0.198c1.112,-0.757 1.602,-0.6 1.602,-0.6c0.314,0.806 0.117,1.401 0.058,1.549c0.373,0.409 0.6,0.931 0.6,1.57c0,2.248 -1.368,2.743 -2.67,2.887c0.205,0.176 0.395,0.535 0.395,1.083c0,0.783 -0.007,1.412 -0.007,1.602c-0,0.154 0.102,0.337 0.402,0.278c2.341,-0.767 4.017,-2.962 4.017,-5.544c-0,-3.232 -2.621,-5.852 -5.853,-5.852" style="fill:#fff;fill-rule:nonzero;"/></g></svg>