<?xml version="1.0" encoding="UTF-8" standalone="no"?><!DOCTYPE svg PUBLIC "-//W3C//DTD SVG 1.1//EN" "http://www.w3.org/Graphics/SVG/1.1/DTD/svg11.dtd"><svg width="100%" height="100%" viewBox="0 0 67 18" version="1.1" xmlns="http://www.w3.org/2000/svg" xmlns:xlink="http://www.w3.org/1999/xlink" xml:space="preserve" xmlns:serif="http://www.serif.com/" style="fill-rule:evenodd;clip-rule:evenodd;stroke-linejoin:round;stroke-miterlimit:2;"><g id="HackerEarth"><path d="M66.832,1.892c0,-1.044 -0.847,-1.892 -1.891,-1.892l-63.049,-0c-1.044,-0 -1.892,0.848 -1.892,1.892l-0,14.124c-0,1.044 0.848,1.892 1.892,1.892l63.049,-0c1.044,-0 1.891,-0.848 1.891,-1.892l0,-14.124Z" style="fill:#2c3454;"/><path d="M12.383,13.312l-6.289,-0l0,-0.622l6.289,-0l-0,0.622Zm1.231,-10.21l-5.589,-0l-0,3.174l0.05,0c0.481,-0.622 1.076,-0.682 1.726,-0.636c0.959,0.057 1.897,0.656 1.959,2.52l-0,3.571c-0,0.044 -0.025,0.087 -0.068,0.087l-1.116,-0c-0.044,-0 -0.124,-0.04 -0.124,-0.087l0,-3.46c0,-0.869 -0.283,-1.519 -1.141,-1.519c-0.626,-0 -1.286,0.435 -1.286,1.351l-0,3.617c-0,0.043 -0.004,0.035 -0.05,0.035l-1.117,0c-0.044,0 -0.141,0.011 -0.141,-0.035l-0,-8.618l-1.781,-0c-0.411,-0 -0.771,0.328 -0.771,0.739l0,10.239c0,0.411 0.36,0.726 0.771,0.726l8.679,0c0.411,0 0.698,-0.315 0.698,-0.726l-0,-10.239c-0,-0.411 -0.287,-0.739 -0.698,-0.739" style="fill:#fff;fill-rule:nonzero;"/><text x="18.368px" y="12.214px" style="font-family:'ProductSans-Bold', 'Product Sans', sans-serif;font-weight:700;font-size:9.314px;fill:#fff;">F<tspan x="23.286px " y="12.214px ">o</tspan>llo<tspan x="38.355px " y="12.214px ">w</tspan> Me</text></g></svg>