<?xml version="1.0" encoding="UTF-8" standalone="no"?><!DOCTYPE svg PUBLIC "-//W3C//DTD SVG 1.1//EN" "http://www.w3.org/Graphics/SVG/1.1/DTD/svg11.dtd"><svg width="100%" height="100%" viewBox="0 0 67 18" version="1.1" xmlns="http://www.w3.org/2000/svg" xmlns:xlink="http://www.w3.org/1999/xlink" xml:space="preserve" xmlns:serif="http://www.serif.com/" style="fill-rule:evenodd;clip-rule:evenodd;stroke-linejoin:round;stroke-miterlimit:2;"><g id="Instagram"><path d="M66.832,1.892c0,-1.044 -0.847,-1.892 -1.891,-1.892l-63.049,-0c-1.044,-0 -1.892,0.848 -1.892,1.892l-0,14.124c-0,1.044 0.848,1.892 1.892,1.892l63.049,-0c1.044,-0 1.891,-0.848 1.891,-1.892l0,-14.124Z" style="fill:#e4405f;"/><path d="M9.238,3.102c-1.589,-0 -1.788,0.007 -2.412,0.035c-0.623,0.029 -1.048,0.127 -1.421,0.272c-0.385,0.149 -0.711,0.35 -1.037,0.675c-0.325,0.325 -0.526,0.651 -0.675,1.037c-0.144,0.373 -0.243,0.797 -0.272,1.42c-0.029,0.625 -0.035,0.823 -0.035,2.413c0,1.59 0.008,1.788 0.035,2.412c0.03,0.623 0.128,1.048 0.272,1.421c0.15,0.384 0.35,0.712 0.675,1.037c0.326,0.325 0.652,0.526 1.037,0.675c0.374,0.144 0.798,0.243 1.421,0.272c0.624,0.029 0.823,0.035 2.412,0.035c1.59,0 1.789,-0.007 2.413,-0.035c0.623,-0.029 1.048,-0.128 1.421,-0.272c0.384,-0.149 0.711,-0.35 1.036,-0.675c0.325,-0.325 0.527,-0.651 0.675,-1.037c0.145,-0.373 0.244,-0.798 0.273,-1.421c0.029,-0.624 0.035,-0.822 0.035,-2.412c-0,-1.59 -0.008,-1.788 -0.035,-2.413c-0.03,-0.622 -0.128,-1.048 -0.273,-1.42c-0.149,-0.385 -0.35,-0.712 -0.675,-1.037c-0.325,-0.325 -0.651,-0.526 -1.036,-0.675c-0.373,-0.145 -0.798,-0.243 -1.421,-0.272c-0.624,-0.029 -0.823,-0.035 -2.413,-0.035Zm0,1.053c1.562,0 1.749,0.008 2.366,0.035c0.57,0.027 0.88,0.121 1.086,0.202c0.274,0.106 0.468,0.233 0.674,0.437c0.204,0.205 0.331,0.399 0.437,0.674c0.08,0.205 0.175,0.515 0.201,1.086c0.028,0.617 0.034,0.802 0.034,2.365c0,1.562 -0.007,1.748 -0.036,2.365c-0.03,0.571 -0.125,0.88 -0.205,1.086c-0.109,0.274 -0.234,0.468 -0.439,0.674c-0.204,0.205 -0.401,0.331 -0.673,0.437c-0.204,0.08 -0.519,0.176 -1.09,0.202c-0.621,0.027 -0.804,0.034 -2.369,0.034c-1.566,-0 -1.749,-0.008 -2.37,-0.036c-0.571,-0.03 -0.885,-0.125 -1.09,-0.206c-0.278,-0.109 -0.468,-0.233 -0.673,-0.438c-0.205,-0.204 -0.336,-0.402 -0.439,-0.673c-0.08,-0.205 -0.175,-0.52 -0.205,-1.09c-0.022,-0.615 -0.029,-0.804 -0.029,-2.362c-0,-1.559 0.007,-1.749 0.029,-2.371c0.03,-0.571 0.125,-0.885 0.205,-1.09c0.103,-0.278 0.234,-0.468 0.439,-0.673c0.205,-0.204 0.395,-0.336 0.673,-0.438c0.205,-0.081 0.512,-0.176 1.083,-0.205c0.622,-0.022 0.805,-0.03 2.369,-0.03l0.022,0.015Zm0,1.794c-1.66,-0 -3.005,1.346 -3.005,3.005c0,1.66 1.346,3.005 3.005,3.005c1.661,-0 3.006,-1.346 3.006,-3.005c-0,-1.661 -1.346,-3.005 -3.006,-3.005Zm0,4.956c-1.077,-0 -1.95,-0.873 -1.95,-1.951c-0,-1.078 0.873,-1.951 1.95,-1.951c1.078,0 1.951,0.873 1.951,1.951c0,1.078 -0.873,1.951 -1.951,1.951Zm3.827,-5.075c-0,0.388 -0.315,0.703 -0.702,0.703c-0.388,-0 -0.703,-0.316 -0.703,-0.703c0,-0.387 0.315,-0.702 0.703,-0.702c0.386,-0 0.702,0.315 0.702,0.702Z" style="fill:#fff;fill-rule:nonzero;"/><text x="18.368px" y="12.214px" style="font-family:'ProductSans-Bold', 'Product Sans', sans-serif;font-weight:700;font-size:9.314px;fill:#fff;">F<tspan x="23.286px " y="12.214px ">o</tspan>llo<tspan x="38.355px " y="12.214px ">w</tspan> Me</text></g></svg>