<?xml version="1.0" encoding="UTF-8" standalone="no"?><!DOCTYPE svg PUBLIC "-//W3C//DTD SVG 1.1//EN" "http://www.w3.org/Graphics/SVG/1.1/DTD/svg11.dtd"><svg width="100%" height="100%" viewBox="0 0 67 18" version="1.1" xmlns="http://www.w3.org/2000/svg" xmlns:xlink="http://www.w3.org/1999/xlink" xml:space="preserve" xmlns:serif="http://www.serif.com/" style="fill-rule:evenodd;clip-rule:evenodd;stroke-linejoin:round;stroke-miterlimit:2;"><g id="LinkedIn"><path d="M66.832,1.892c0,-1.044 -0.847,-1.892 -1.891,-1.892l-63.049,-0c-1.044,-0 -1.892,0.848 -1.892,1.892l-0,14.124c-0,1.044 0.848,1.892 1.892,1.892l63.049,-0c1.044,-0 1.891,-0.848 1.891,-1.892l0,-14.124Z" style="fill:#0a66c2;"/><path d="M13.358,13.076l-1.733,-0l-0,-2.716c-0,-0.648 -0.014,-1.481 -0.904,-1.481c-0.903,-0 -1.041,0.704 -1.041,1.433l-0,2.764l-1.733,-0l-0,-5.585l1.665,-0l-0,0.761l0.022,0c0.233,-0.439 0.798,-0.902 1.643,-0.902c1.757,-0 2.081,1.156 2.081,2.66l0,3.066Zm-7.369,-6.349c-0.558,-0 -1.006,-0.452 -1.006,-1.007c-0,-0.555 0.449,-1.007 1.006,-1.007c0.556,0 1.007,0.452 1.007,1.007c-0,0.555 -0.452,1.007 -1.007,1.007Zm0.869,6.349l-1.738,-0l-0,-5.585l1.738,-0l0,5.585Zm7.367,-9.974l-9.975,-0c-0.478,-0 -0.864,0.377 -0.864,0.843l0,10.018c0,0.466 0.386,0.843 0.864,0.843l9.974,0c0.476,0 0.867,-0.377 0.867,-0.843l-0,-10.018c-0,-0.466 -0.391,-0.843 -0.867,-0.843l0.001,-0Z" style="fill:#fff;fill-rule:nonzero;"/><text x="18.368px" y="12.214px" style="font-family:'ProductSans-Bold', 'Product Sans', sans-serif;font-weight:700;font-size:9.314px;fill:#fff;">F<tspan x="23.286px " y="12.214px ">o</tspan>llo<tspan x="38.355px " y="12.214px ">w</tspan> Me</text></g></svg>