<?xml version="1.0" encoding="UTF-8" standalone="no"?><!DOCTYPE svg PUBLIC "-//W3C//DTD SVG 1.1//EN" "http://www.w3.org/Graphics/SVG/1.1/DTD/svg11.dtd"><svg width="100%" height="100%" viewBox="0 0 67 18" version="1.1" xmlns="http://www.w3.org/2000/svg" xmlns:xlink="http://www.w3.org/1999/xlink" xml:space="preserve" xmlns:serif="http://www.serif.com/" style="fill-rule:evenodd;clip-rule:evenodd;stroke-linejoin:round;stroke-miterlimit:2;"><g id="Twitter"><path d="M66.832,1.892c0,-1.044 -0.847,-1.892 -1.891,-1.892l-63.049,-0c-1.044,-0 -1.892,0.848 -1.892,1.892l-0,14.124c-0,1.044 0.848,1.892 1.892,1.892l63.049,-0c1.044,-0 1.891,-0.848 1.891,-1.892l0,-14.124Z" style="fill:#1da1f2;"/><path d="M15.068,5.33c-0.438,0.193 -0.903,0.321 -1.378,0.378c0.5,-0.3 0.875,-0.772 1.055,-1.328c-0.464,0.271 -0.978,0.468 -1.525,0.578c-0.454,-0.485 -1.089,-0.761 -1.753,-0.761c-1.316,0 -2.399,1.083 -2.399,2.4c-0,0.184 0.021,0.367 0.063,0.547c-1.994,-0.095 -3.761,-1.053 -4.945,-2.5c-0.215,0.365 -0.327,0.783 -0.325,1.207c0,0.834 0.425,1.567 1.067,1.997c-0.381,-0.012 -0.753,-0.115 -1.086,-0.3l-0,0.029c-0.001,1.138 0.808,2.128 1.924,2.354c-0.352,0.094 -0.72,0.109 -1.079,0.042c0.316,0.975 1.221,1.647 2.246,1.666c-0.849,0.666 -1.897,1.028 -2.976,1.027c-0.19,-0 -0.38,-0.012 -0.571,-0.033c1.1,0.704 2.38,1.078 3.686,1.077c4.415,0 6.826,-3.655 6.826,-6.82c0,-0.102 0,-0.205 -0.007,-0.307c0.471,-0.339 0.877,-0.76 1.2,-1.243l-0.023,-0.01Z" style="fill:#fff;fill-rule:nonzero;"/><text x="18.368px" y="12.214px" style="font-family:'ProductSans-Bold', 'Product Sans', sans-serif;font-weight:700;font-size:9.314px;fill:#fff;">F<tspan x="23.286px " y="12.214px ">o</tspan>llo<tspan x="38.355px " y="12.214px ">w</tspan> Me</text></g></svg>